<svg width="405" height="75" viewBox="0 0 405 75" fill="none" xmlns="http://www.w3.org/2000/svg">
<path d="M23.1028 32.4683C23.1028 32.4683 21.9369 52.2891 35.0536 66.8632C35.0536 66.8632 20.8035 70.2525 15.5242 53.455C10.7148 38.1522 23.1028 32.4683 23.1028 32.4683Z" fill="#FACF39"/>
<path d="M39.3252 29.8549C39.3252 29.8549 38.3095 47.1217 49.7361 59.818C49.7361 59.818 37.3221 62.7706 32.7231 48.1374C28.5334 34.8064 39.3252 29.8549 39.3252 29.8549Z" fill="#FACF39"/>
<path d="M9.25643 44.9543C9.25643 44.9543 8.46733 58.369 17.3447 68.2327C17.3447 68.2327 8.89167 68.7541 5.28457 58.7708C2.59682 51.332 9.25643 44.9543 9.25643 44.9543Z" fill="#FACF39"/>
<path d="M53.0582 24.6657C53.0582 24.6657 23.7642 -12.0611 3.6519 4.11621C-16.4604 20.2935 53.0582 24.6657 53.0582 24.6657Z" fill="#FACF39"/>
<path d="M63.2315 48.019C68.2474 48.019 72.3136 43.9528 72.3136 38.9369C72.3136 33.921 68.2474 29.8549 63.2315 29.8549C58.2156 29.8549 54.1494 33.921 54.1494 38.9369C54.1494 43.9528 58.2156 48.019 63.2315 48.019Z" fill="#FACF39"/>
<path d="M112.377 20.6507C116.601 20.6507 120.015 21.9947 122.617 24.6827C125.22 27.328 126.521 31.04 126.521 35.8187V56.6187H117.561V37.0347C117.561 34.2187 116.857 32.064 115.449 30.5707C114.041 29.0347 112.121 28.2667 109.689 28.2667C107.215 28.2667 105.252 29.0347 103.801 30.5707C102.393 32.064 101.689 34.2187 101.689 37.0347V56.6187H92.7295V21.1627H101.689V25.5787C102.884 24.0427 104.399 22.848 106.233 21.9947C108.111 21.0987 110.159 20.6507 112.377 20.6507ZM165.954 21.1627V56.6187H156.93V52.1387C155.778 53.6747 154.263 54.8907 152.386 55.7867C150.551 56.64 148.546 57.0667 146.37 57.0667C143.597 57.0667 141.143 56.4907 139.01 55.3387C136.877 54.144 135.191 52.416 133.954 50.1547C132.759 47.8507 132.162 45.12 132.162 41.9627V21.1627H141.122V40.6827C141.122 43.4987 141.826 45.6747 143.234 47.2107C144.642 48.704 146.562 49.4507 148.994 49.4507C151.469 49.4507 153.41 48.704 154.818 47.2107C156.226 45.6747 156.93 43.4987 156.93 40.6827V21.1627H165.954ZM169.93 38.7627C169.93 35.1787 170.634 32 172.042 29.2267C173.493 26.4533 175.456 24.32 177.93 22.8267C180.405 21.3333 183.157 20.5867 186.186 20.5867C188.49 20.5867 190.688 21.0987 192.778 22.1227C194.869 23.104 196.533 24.4267 197.77 26.0907V9.25865H206.858V56.6187H197.77V51.3707C196.661 53.12 195.104 54.528 193.098 55.5947C191.093 56.6613 188.768 57.1947 186.122 57.1947C183.136 57.1947 180.405 56.4267 177.93 54.8907C175.456 53.3547 173.493 51.2 172.042 48.4267C170.634 45.6107 169.93 42.3893 169.93 38.7627ZM197.834 38.8907C197.834 36.7147 197.408 34.8587 196.554 33.3227C195.701 31.744 194.549 30.5493 193.098 29.7387C191.648 28.8853 190.09 28.4587 188.426 28.4587C186.762 28.4587 185.226 28.864 183.818 29.6747C182.41 30.4853 181.258 31.68 180.362 33.2587C179.509 34.7947 179.082 36.6293 179.082 38.7627C179.082 40.896 179.509 42.7733 180.362 44.3947C181.258 45.9733 182.41 47.1893 183.818 48.0427C185.269 48.896 186.805 49.3227 188.426 49.3227C190.09 49.3227 191.648 48.9173 193.098 48.1067C194.549 47.2533 195.701 46.0587 196.554 44.5227C197.408 42.944 197.834 41.0667 197.834 38.8907ZM226.937 20.5867C229.583 20.5867 231.908 21.12 233.913 22.1866C235.919 23.2107 237.497 24.5547 238.649 26.2187V21.1627H247.673V56.8747C247.673 60.16 247.012 63.0827 245.689 65.6427C244.367 68.2453 242.383 70.2933 239.737 71.7867C237.092 73.3227 233.892 74.0907 230.137 74.0907C225.103 74.0907 220.964 72.9173 217.721 70.5707C214.521 68.224 212.708 65.024 212.281 60.9707H221.177C221.647 62.592 222.649 63.872 224.185 64.8107C225.764 65.792 227.663 66.2827 229.881 66.2827C232.484 66.2827 234.596 65.4933 236.217 63.9147C237.839 62.3787 238.649 60.032 238.649 56.8747V51.3707C237.497 53.0347 235.897 54.4213 233.849 55.5307C231.844 56.64 229.54 57.1947 226.937 57.1947C223.951 57.1947 221.22 56.4267 218.745 54.8907C216.271 53.3547 214.308 51.2 212.857 48.4267C211.449 45.6107 210.745 42.3893 210.745 38.7627C210.745 35.1787 211.449 32 212.857 29.2267C214.308 26.4533 216.249 24.32 218.681 22.8267C221.156 21.3333 223.908 20.5867 226.937 20.5867ZM238.649 38.8907C238.649 36.7147 238.223 34.8587 237.369 33.3227C236.516 31.744 235.364 30.5493 233.913 29.7387C232.463 28.8853 230.905 28.4587 229.241 28.4587C227.577 28.4587 226.041 28.864 224.633 29.6747C223.225 30.4853 222.073 31.68 221.177 33.2587C220.324 34.7947 219.897 36.6293 219.897 38.7627C219.897 40.896 220.324 42.7733 221.177 44.3947C222.073 45.9733 223.225 47.1893 224.633 48.0427C226.084 48.896 227.62 49.3227 229.241 49.3227C230.905 49.3227 232.463 48.9173 233.913 48.1067C235.364 47.2533 236.516 46.0587 237.369 44.5227C238.223 42.944 238.649 41.0667 238.649 38.8907ZM286.824 38.1227C286.824 39.4027 286.739 40.5547 286.568 41.5787H260.648C260.862 44.1387 261.758 46.144 263.336 47.5947C264.915 49.0453 266.856 49.7707 269.16 49.7707C272.488 49.7707 274.856 48.3413 276.264 45.4827H285.928C284.904 48.896 282.942 51.712 280.04 53.9307C277.139 56.1067 273.576 57.1947 269.352 57.1947C265.939 57.1947 262.867 56.448 260.136 54.9547C257.448 53.4187 255.336 51.264 253.8 48.4907C252.307 45.7173 251.56 42.5173 251.56 38.8907C251.56 35.2213 252.307 32 253.8 29.2267C255.294 26.4533 257.384 24.32 260.072 22.8267C262.76 21.3333 265.854 20.5867 269.352 20.5867C272.723 20.5867 275.731 21.312 278.376 22.7626C281.064 24.2133 283.134 26.2827 284.584 28.9707C286.078 31.616 286.824 34.6667 286.824 38.1227ZM277.544 35.5627C277.502 33.2587 276.67 31.424 275.048 30.0587C273.427 28.6507 271.443 27.9467 269.096 27.9467C266.878 27.9467 265 28.6293 263.464 29.9947C261.971 31.3173 261.054 33.1733 260.712 35.5627H277.544Z" fill="#1B2D4A"/>
<path d="M299.764 26.3467C300.916 24.64 302.495 23.2533 304.5 22.1866C306.548 21.12 308.874 20.5867 311.476 20.5867C314.506 20.5867 317.236 21.3333 319.668 22.8267C322.143 24.32 324.084 26.4533 325.492 29.2267C326.943 31.9573 327.668 35.136 327.668 38.7627C327.668 42.3893 326.943 45.6107 325.492 48.4267C324.084 51.2 322.143 53.3547 319.668 54.8907C317.236 56.4267 314.506 57.1947 311.476 57.1947C308.831 57.1947 306.506 56.6827 304.5 55.6587C302.538 54.592 300.959 53.2267 299.764 51.5627V56.6187H290.804V9.25865H299.764V26.3467ZM318.516 38.7627C318.516 36.6293 318.068 34.7947 317.172 33.2587C316.319 31.68 315.167 30.4853 313.716 29.6747C312.308 28.864 310.772 28.4587 309.108 28.4587C307.487 28.4587 305.951 28.8853 304.5 29.7387C303.092 30.5493 301.94 31.744 301.044 33.3227C300.191 34.9013 299.764 36.7573 299.764 38.8907C299.764 41.024 300.191 42.88 301.044 44.4587C301.94 46.0373 303.092 47.2533 304.5 48.1067C305.951 48.9173 307.487 49.3227 309.108 49.3227C310.772 49.3227 312.308 48.896 313.716 48.0427C315.167 47.1893 316.319 45.9733 317.172 44.3947C318.068 42.816 318.516 40.9387 318.516 38.7627ZM364.579 38.1227C364.579 39.4027 364.494 40.5547 364.323 41.5787H338.403C338.617 44.1387 339.513 46.144 341.091 47.5947C342.67 49.0453 344.611 49.7707 346.915 49.7707C350.243 49.7707 352.611 48.3413 354.019 45.4827H363.683C362.659 48.896 360.697 51.712 357.795 53.9307C354.894 56.1067 351.331 57.1947 347.107 57.1947C343.694 57.1947 340.622 56.448 337.891 54.9547C335.203 53.4187 333.091 51.264 331.555 48.4907C330.062 45.7173 329.315 42.5173 329.315 38.8907C329.315 35.2213 330.062 32 331.555 29.2267C333.049 26.4533 335.139 24.32 337.827 22.8267C340.515 21.3333 343.609 20.5867 347.107 20.5867C350.478 20.5867 353.486 21.312 356.131 22.7626C358.819 24.2133 360.889 26.2827 362.339 28.9707C363.833 31.616 364.579 34.6667 364.579 38.1227ZM355.299 35.5627C355.257 33.2587 354.425 31.424 352.803 30.0587C351.182 28.6507 349.198 27.9467 346.851 27.9467C344.633 27.9467 342.755 28.6293 341.219 29.9947C339.726 31.3173 338.809 33.1733 338.467 35.5627H355.299ZM401.519 38.1227C401.519 39.4027 401.434 40.5547 401.263 41.5787H375.343C375.557 44.1387 376.453 46.144 378.031 47.5947C379.61 49.0453 381.551 49.7707 383.855 49.7707C387.183 49.7707 389.551 48.3413 390.959 45.4827H400.623C399.599 48.896 397.637 51.712 394.735 53.9307C391.834 56.1067 388.271 57.1947 384.047 57.1947C380.634 57.1947 377.562 56.448 374.831 54.9547C372.143 53.4187 370.031 51.264 368.495 48.4907C367.002 45.7173 366.255 42.5173 366.255 38.8907C366.255 35.2213 367.002 32 368.495 29.2267C369.989 26.4533 372.079 24.32 374.767 22.8267C377.455 21.3333 380.549 20.5867 384.047 20.5867C387.418 20.5867 390.426 21.312 393.071 22.7626C395.759 24.2133 397.829 26.2827 399.279 28.9707C400.773 31.616 401.519 34.6667 401.519 38.1227ZM392.239 35.5627C392.197 33.2587 391.365 31.424 389.743 30.0587C388.122 28.6507 386.138 27.9467 383.791 27.9467C381.573 27.9467 379.695 28.6293 378.159 29.9947C376.666 31.3173 375.749 33.1733 375.407 35.5627H392.239Z" fill="#646464"/>
</svg>
